<svg width="349" height="346" viewBox="0 0 349 346" fill="none" xmlns="http://www.w3.org/2000/svg">
<mask id="mask0_352_2413" style="mask-type:luminance" maskUnits="userSpaceOnUse" x="0" y="0" width="349" height="346">
<path d="M348.47 0H0V345.775H348.47V0Z" fill="white"/>
</mask>
<g mask="url(#mask0_352_2413)">
<path d="M180.415 308.437C262.245 308.437 328.579 242.101 328.579 160.271C328.579 78.4416 262.245 12.1058 180.415 12.1058C98.5856 12.1058 32.2494 78.4416 32.2494 160.271C32.2494 242.101 98.5856 308.437 180.415 308.437Z" stroke="#D1E8F7" stroke-width="1.91649" stroke-miterlimit="10"/>
<path d="M59.8793 78.4916C62.7616 78.4916 65.0981 76.155 65.0981 73.2728C65.0981 70.3905 62.7616 68.0544 59.8793 68.0544C56.9975 68.0544 54.6609 70.3905 54.6609 73.2728C54.6609 76.155 56.9975 78.4916 59.8793 78.4916Z" fill="#5CA4E6"/>
<path d="M328.579 171.133C331.462 171.133 333.8 168.796 333.8 165.914C333.8 163.032 331.462 160.695 328.579 160.695C325.699 160.695 323.361 163.032 323.361 165.914C323.361 168.796 325.699 171.133 328.579 171.133Z" fill="#5661AE"/>
<path d="M186.492 313.655C189.374 313.655 191.711 311.319 191.711 308.437C191.711 305.555 189.374 303.218 186.492 303.218C183.61 303.218 181.274 305.555 181.274 308.437C181.274 311.319 183.61 313.655 186.492 313.655Z" fill="#0A192F"/>
<path d="M183.848 271.775C244.89 271.775 294.375 222.29 294.375 161.247C294.375 100.204 244.89 50.7195 183.848 50.7195C122.805 50.7195 73.3199 100.204 73.3199 161.247C73.3199 222.29 122.805 271.775 183.848 271.775Z" stroke="#D1E8F7" stroke-width="1.42966" stroke-miterlimit="10"/>
<path d="M292.48 187.404C294.63 187.404 296.373 185.661 296.373 183.511C296.373 181.361 294.63 179.618 292.48 179.618C290.33 179.618 288.587 181.361 288.587 183.511C288.587 185.661 290.33 187.404 292.48 187.404Z" fill="#5CA4E6"/>
<path d="M81.335 206.677C83.4852 206.677 85.2281 204.934 85.2281 202.784C85.2281 200.634 83.4852 198.891 81.335 198.891C79.1852 198.891 77.4423 200.634 77.4423 202.784C77.4423 204.934 79.1852 206.677 81.335 206.677Z" fill="#5661AE"/>
<path d="M134.339 66.2169C136.489 66.2169 138.232 64.474 138.232 62.3238C138.232 60.1739 136.489 58.431 134.339 58.431C132.189 58.431 130.446 60.1739 130.446 62.3238C130.446 64.474 132.189 66.2169 134.339 66.2169Z" fill="#0A192F"/>
<path d="M241.373 283.642H113.731C108.193 283.642 104.136 279.153 104.668 273.615L126.458 46.9441C126.99 41.4064 131.91 36.9171 137.448 36.9171H265.09C270.628 36.9171 274.685 41.4064 274.153 46.9441L252.363 273.615C251.831 279.153 246.91 283.642 241.373 283.642Z" fill="#0A192F"/>
<path d="M232.377 283.642H104.735C99.1978 283.642 95.1403 279.153 95.6724 273.615L117.462 46.9441C117.994 41.4064 122.915 36.9171 128.453 36.9171H256.095C261.632 36.9171 265.689 41.4064 265.157 46.9441L243.368 273.615C242.835 279.153 237.915 283.642 232.377 283.642Z" fill="url(#paint0_linear_352_2413)"/>
<path d="M227.54 276.106H111.021C105.889 276.106 102.129 271.946 102.622 266.814L123.104 53.7447C123.598 48.6127 128.158 44.4526 133.29 44.4526H249.808C254.94 44.4526 258.701 48.6127 258.208 53.7447L237.726 266.814C237.232 271.946 232.672 276.106 227.54 276.106Z" fill="white"/>
<path d="M236.884 141.381L111.889 141.27C111.379 141.284 110.871 141.189 110.4 140.991C109.93 140.793 109.506 140.497 109.159 140.122C108.812 139.748 108.549 139.303 108.387 138.819C108.225 138.335 108.168 137.821 108.221 137.313L114.959 62.4869C115.081 61.407 115.594 60.4094 116.401 59.6819C117.208 58.954 118.253 58.5471 119.34 58.5367L244.335 58.6479C244.845 58.6342 245.353 58.7293 245.824 58.9271C246.294 59.1254 246.718 59.4212 247.065 59.7959C247.412 60.1706 247.675 60.6147 247.837 61.0993C247.999 61.5834 248.056 62.0969 248.003 62.605L241.265 137.432C241.143 138.511 240.63 139.509 239.823 140.237C239.016 140.964 237.971 141.371 236.884 141.381Z" fill="url(#paint1_linear_352_2413)"/>
<path d="M232.949 222.007H180.118C179.728 222.015 179.341 221.939 178.984 221.784C178.626 221.63 178.306 221.4 178.044 221.111C177.783 220.822 177.587 220.48 177.469 220.108C177.351 219.737 177.315 219.344 177.361 218.958L183.776 152.226C183.869 151.398 184.259 150.633 184.874 150.072C185.489 149.511 186.287 149.193 187.119 149.176H239.95C240.339 149.168 240.726 149.244 241.084 149.399C241.442 149.554 241.762 149.783 242.023 150.073C242.285 150.362 242.481 150.703 242.599 151.075C242.716 151.447 242.753 151.839 242.706 152.226L236.291 218.958C236.199 219.785 235.809 220.55 235.194 221.111C234.579 221.672 233.781 221.991 232.949 222.007Z" fill="url(#paint2_linear_352_2413)"/>
<path d="M220.354 185.194C226.312 179.516 226.96 170.525 221.802 165.114C216.644 159.701 207.632 159.918 201.674 165.596C195.717 171.274 195.068 180.265 200.227 185.677C205.385 191.089 214.396 190.873 220.354 185.194Z" stroke="#0A192F" stroke-width="11.6898" stroke-miterlimit="10"/>
<path d="M204.317 188.522C199.374 186.387 196.242 181.314 196.811 175.395C197.565 167.551 204.535 161.192 212.379 161.192" stroke="white" stroke-width="11.6898" stroke-miterlimit="10" stroke-linecap="round"/>
<path d="M203.144 200.731H214.013" stroke="white" stroke-width="5.98374" stroke-miterlimit="10" stroke-linecap="round"/>
<path d="M201.96 213.041H212.83" stroke="white" stroke-width="5.98374" stroke-miterlimit="10" stroke-linecap="round"/>
<path opacity="0.4" d="M196.762 206.817H219.225" stroke="white" stroke-width="5.98374" stroke-miterlimit="10" stroke-linecap="round"/>
<path d="M168.34 222.007H115.509C115.12 222.015 114.733 221.939 114.375 221.784C114.018 221.63 113.697 221.4 113.436 221.111C113.175 220.822 112.978 220.48 112.861 220.108C112.742 219.737 112.706 219.344 112.753 218.958L119.168 152.226C119.26 151.398 119.65 150.633 120.265 150.072C120.88 149.511 121.678 149.193 122.51 149.176H175.341C175.731 149.168 176.117 149.244 176.475 149.399C176.833 149.554 177.153 149.783 177.415 150.073C177.676 150.362 177.872 150.703 177.99 151.075C178.108 151.447 178.145 151.839 178.098 152.226L171.683 218.958C171.59 219.785 171.2 220.55 170.585 221.111C169.97 221.672 169.172 221.991 168.34 222.007Z" fill="#5CA4E6"/>
<path d="M155.745 185.194C161.703 179.516 162.351 170.525 157.193 165.114C152.035 159.701 143.023 159.918 137.066 165.596C131.108 171.274 130.459 180.265 135.618 185.677C140.776 191.089 149.787 190.873 155.745 185.194Z" stroke="#0A192F" stroke-width="11.6898" stroke-miterlimit="10"/>
<path d="M160.609 175.395C159.855 183.24 152.885 189.599 145.04 189.599C137.196 189.599 131.448 183.24 132.202 175.395C132.956 167.551 139.926 161.192 147.771 161.192" stroke="white" stroke-width="11.6898" stroke-miterlimit="10" stroke-linecap="round"/>
<path d="M138.535 200.731H149.404" stroke="white" stroke-width="5.98374" stroke-miterlimit="10" stroke-linecap="round"/>
<path d="M137.352 213.041H148.221" stroke="white" stroke-width="5.98374" stroke-miterlimit="10" stroke-linecap="round"/>
<path opacity="0.4" d="M132.154 206.817H154.616" stroke="white" stroke-width="5.98374" stroke-miterlimit="10" stroke-linecap="round"/>
<path d="M228.52 269.737H110.762C110.392 269.744 110.026 269.672 109.687 269.526C109.348 269.379 109.044 269.161 108.796 268.887C108.549 268.613 108.363 268.29 108.251 267.937C108.14 267.585 108.105 267.213 108.149 266.847L111.663 230.292C111.751 229.508 112.121 228.782 112.704 228.251C113.287 227.719 114.043 227.417 114.832 227.402H232.59C232.959 227.394 233.325 227.467 233.664 227.613C234.003 227.76 234.307 227.977 234.555 228.251C234.802 228.525 234.988 228.849 235.1 229.201C235.212 229.554 235.246 229.925 235.202 230.292L231.688 266.847C231.6 267.631 231.231 268.356 230.648 268.888C230.065 269.42 229.309 269.721 228.52 269.737Z" fill="url(#paint3_linear_352_2413)"/>
<path d="M118.962 261.261L120.623 243.98" stroke="white" stroke-width="11.6898" stroke-miterlimit="10" stroke-linecap="round"/>
<path d="M131.151 249.156L129.987 261.261" stroke="white" stroke-width="11.6898" stroke-miterlimit="10" stroke-linecap="round"/>
<path d="M141.779 253.29L141.012 261.261" stroke="white" stroke-width="11.6898" stroke-miterlimit="10" stroke-linecap="round"/>
<path d="M154.13 239.489L152.037 261.261" stroke="white" stroke-width="11.6898" stroke-miterlimit="10" stroke-linecap="round"/>
<path d="M163.829 253.29L163.062 261.261" stroke="white" stroke-width="11.6898" stroke-miterlimit="10" stroke-linecap="round"/>
<path d="M176.088 240.451L174.088 261.261" stroke="white" stroke-width="11.6898" stroke-miterlimit="10" stroke-linecap="round"/>
<path d="M185.943 252.621L185.113 261.261" stroke="white" stroke-width="11.6898" stroke-miterlimit="10" stroke-linecap="round"/>
<path d="M196.58 256.658L196.138 261.261" stroke="white" stroke-width="11.6898" stroke-miterlimit="10" stroke-linecap="round"/>
<path d="M208.824 243.98L207.163 261.261" stroke="white" stroke-width="11.6898" stroke-miterlimit="10" stroke-linecap="round"/>
<path d="M220.481 237.4L218.188 261.261" stroke="white" stroke-width="11.6898" stroke-miterlimit="10" stroke-linecap="round"/>
<path d="M122.014 129.907L128.632 140.274C128.931 140.742 129.032 141.309 128.915 141.851C128.797 142.394 128.47 142.868 128.005 143.171L126.935 143.866C125.145 145.029 122.993 145.503 120.879 145.199C118.766 144.895 116.835 143.834 115.445 142.213L106.662 131.972L122.014 129.907Z" fill="#FFCCB3"/>
<path d="M116.964 133.897C116.964 133.897 119.415 142.311 124.338 145.01C125.616 144.515 126.844 143.899 128.005 143.171L122.484 133.897" fill="#FCBA9F"/>
<path d="M3.74445 171.736L29.7393 159.278C32.1887 158.105 34.2596 156.267 35.717 153.975L60.8291 114.472C62.3923 112.013 64.6599 110.081 67.3364 108.928L103.505 93.3453L95.762 151.903L95.6257 154.066C95.6257 154.066 86.0593 178.843 62.6121 187.844L25.1245 210.773L3.74445 171.736Z" fill="#FFCCB3"/>
<path d="M32.0337 157.904C32.0337 157.904 44.3303 188.596 62.6121 187.844L50.9397 194.983C50.9397 194.983 11.3213 187.634 26.1515 160.937L32.0337 157.904Z" fill="#FCBA9F"/>
<path d="M97.9069 104.182C97.9069 104.182 85.1187 111.932 85.797 129.907L101.154 124.168L97.9069 104.182Z" fill="#FCBA9F"/>
<path d="M130.032 129.907L136.65 140.274C136.949 140.742 137.05 141.309 136.933 141.851C136.816 142.394 136.488 142.868 136.023 143.171L134.953 143.866C133.163 145.029 131.011 145.503 128.898 145.199C126.784 144.895 124.853 143.834 123.463 142.213L114.681 131.972L130.032 129.907Z" fill="#FFCCB3"/>
<path d="M227.869 133.995L102.875 133.884C102.364 133.898 101.856 133.803 101.386 133.604C100.915 133.407 100.492 133.11 100.144 132.736C99.7968 132.361 99.5337 131.917 99.3717 131.433C99.2098 130.948 99.1532 130.435 99.2057 129.927L105.944 55.1005C106.067 54.0207 106.579 53.023 107.386 52.2955C108.193 51.568 109.238 51.1607 110.325 51.1504L235.32 51.2619C235.83 51.2479 236.338 51.3433 236.809 51.5412C237.28 51.7391 237.703 52.0353 238.05 52.4095C238.397 52.7842 238.661 53.2287 238.823 53.7129C238.984 54.1975 239.041 54.711 238.989 55.2187L232.25 130.045C232.128 131.125 231.615 132.123 230.808 132.85C230.001 133.578 228.956 133.985 227.869 133.995Z" fill="#0A192F"/>
<path d="M111.15 95.5418C111.15 95.5418 122.37 93.2726 125.39 98.5377C128.41 103.802 131.013 113.69 139.048 112.415C147.082 111.14 153.232 85.2905 161.13 85.5264C169.029 85.7623 166.244 102.692 174.841 102.929C183.438 103.165 181.909 93.4717 187.639 93.7419C194.589 94.0695 191.998 114.155 201.061 114.392C210.124 114.628 211.603 87.8609 225.303 88.3306" stroke="white" stroke-width="7.56507" stroke-miterlimit="10" stroke-linecap="round"/>
<path d="M117.532 63.6824L139.523 63.7018" stroke="white" stroke-width="11.9991" stroke-miterlimit="10" stroke-linecap="round"/>
<path opacity="0.4" d="M116.624 73.7631L162.07 73.8036" stroke="white" stroke-width="11.9991" stroke-miterlimit="10" stroke-linecap="round"/>
<path d="M74.0734 133.624L90.1078 126.561L106.505 115.368C110.818 112.425 119.824 111.099 123.066 115.191C126.363 119.353 122.659 127.588 118.659 131.08L103.505 144.314L95.6253 154.066L74.0734 133.624Z" fill="#FFCCB3"/>
<path d="M106.662 119.619C106.662 119.619 108.827 127.966 114.439 129.41L120.392 124.381C120.996 123.932 121.502 123.364 121.879 122.713C122.256 122.061 122.496 121.34 122.586 120.593C122.675 119.846 122.611 119.088 122.398 118.367C122.185 117.645 121.827 116.974 121.346 116.395C120.506 115.384 119.335 114.704 118.04 114.477C116.745 114.25 115.412 114.49 114.278 115.155L106.662 119.619Z" stroke="#FF967C" stroke-width="3" stroke-linecap="round"/>
<path d="M30.727 158.246C30.727 158.246 27.6196 180.47 54.6609 193.195C54.6609 193.195 35.2357 211.014 27.7465 214.01C20.2576 217.006 -7.88049 186.387 2.12749 169.009C4.93415 164.135 30.727 158.246 30.727 158.246Z" fill="#0A192F"/>
<path d="M133.187 134.849C133.187 134.849 122.647 135.064 118.978 136.984L116.33 133.896L132.579 133.897L133.187 134.849Z" fill="#FCBA9F"/>
<path d="M327.249 133.995H252.308C246.663 133.995 242.492 129.419 242.992 123.774L253.047 10.2211C253.547 4.57642 258.528 0 264.173 0H339.113C344.76 0 348.929 4.57642 348.429 10.2211L338.374 123.774C337.874 129.419 332.892 133.995 327.249 133.995Z" fill="#5CA4E6"/>
<path d="M316.52 64.1183C328.389 52.7656 329.583 34.7578 319.193 23.8967C308.802 13.0357 290.759 13.4339 278.892 24.7866C267.026 36.1392 265.83 54.1471 276.221 65.0081C286.612 75.8696 304.655 75.4709 316.52 64.1183Z" fill="white"/>
<path d="M299.295 45.3363L318.106 62.4936C318.106 62.4936 322.386 57.8936 323.663 54.6061L299.295 45.3363Z" fill="url(#paint4_linear_352_2413)"/>
<path d="M300.547 12.378L297.874 42.5668C297.814 43.1166 297.917 43.6718 298.17 44.1643C298.422 44.6563 298.813 45.0636 299.295 45.3363L324.819 59.5464C324.819 59.5464 339.976 17.2609 300.547 12.378Z" fill="#0A192F"/>
<path d="M260.595 93.8043H291.641" stroke="white" stroke-width="12" stroke-miterlimit="10" stroke-linecap="round"/>
<path d="M258.323 119.472H289.369" stroke="white" stroke-width="12" stroke-miterlimit="10" stroke-linecap="round"/>
<path opacity="0.4" d="M259.472 106.493H323.63" stroke="white" stroke-width="12" stroke-miterlimit="10" stroke-linecap="round"/>
<path d="M235.086 217.649C235.086 217.649 245.094 214.98 250.42 220.715C250.42 220.715 259.993 218.976 263.885 224.302C263.885 224.302 272.373 224.794 274.831 228.256C276.875 228.538 278.808 229.356 280.433 230.628C282.057 231.9 283.316 233.579 284.081 235.496C286.402 240.966 284.433 272.59 282.127 283.922C281.55 286.756 281.747 289.693 282.699 292.425L288.567 309.287L247.968 326.259L238.329 301.119C238.329 301.119 226.596 282.264 224.92 278.912C223.244 275.56 226.085 247.744 220.363 230.367L235.086 217.649Z" fill="#FFCCB3"/>
<path d="M243.565 314.777L242.394 311.722C242.394 311.722 263.461 310.376 282.699 292.425L284.539 297.713C284.539 297.713 282.163 308.635 271.344 313.783C260.525 318.931 243.565 314.777 243.565 314.777Z" fill="#FCBA9F"/>
<path d="M243.565 314.777C243.565 314.777 269.065 317.1 284.539 297.713C284.539 297.713 290.252 300.708 299.024 322.636C301.718 329.371 256.727 353.351 249.453 343.383C249.453 343.383 243.173 330.099 243.565 314.777Z" fill="#5661AE"/>
<path d="M222.858 240.857C222.858 240.857 221.978 245.524 217.82 245.524C215.106 245.524 203.346 241.971 195.496 239.5C193.36 238.828 191.069 238.828 188.933 239.5C186.797 240.173 184.919 241.485 183.553 243.259L183.076 243.878C182.839 244.185 182.667 244.537 182.57 244.913C182.473 245.289 182.454 245.68 182.512 246.063C182.571 246.446 182.707 246.814 182.912 247.143C183.117 247.473 183.387 247.757 183.705 247.979C190.35 252.619 208.296 265.211 210.591 267.506C213.416 270.331 229.145 286.166 229.145 286.166L222.858 240.857Z" fill="#FFCCB3"/>
<path d="M221.903 236.182C221.903 236.182 230.404 247.688 229.145 250.206C227.887 252.725 214.706 245.024 214.706 245.024C214.706 245.024 225.342 247.76 221.903 236.182Z" fill="#FCBA9F"/>
<path d="M220.363 230.367L206.059 186.93C205.568 185.44 205.382 183.866 205.511 182.303C205.64 180.739 206.081 179.218 206.809 177.828C207.537 176.439 208.537 175.209 209.748 174.213C210.96 173.217 212.36 172.474 213.864 172.029C215.096 171.665 216.417 171.764 217.581 172.307C218.745 172.849 219.67 173.799 220.181 174.976L240.248 221.103L220.363 230.367Z" fill="#FFCCB3"/>
<path d="M214.16 211.53C214.565 212.196 215.104 212.771 215.742 213.219C216.38 213.667 217.103 213.979 217.868 214.134" stroke="#FF967C" stroke-width="3" stroke-linecap="round"/>
<path d="M219.306 189.294C221.047 188.522 222.967 187.445 223.792 186.187L218.466 173.54C218.352 173.268 218.182 173.023 217.965 172.821C217.749 172.619 217.493 172.466 217.214 172.371C216.934 172.276 216.637 172.242 216.343 172.27C216.049 172.299 215.764 172.389 215.508 172.536C213.613 173.63 211.111 175.604 211.014 178.438L214.616 187.402C214.793 187.84 215.056 188.237 215.39 188.571C215.724 188.905 216.122 189.168 216.559 189.345C216.997 189.521 217.466 189.608 217.938 189.599C218.41 189.59 218.876 189.486 219.306 189.294Z" stroke="#FF967C" stroke-width="3" stroke-linecap="round"/>
<path d="M238.634 217.393L243.565 228.256" stroke="#FF967C" stroke-width="3" stroke-linecap="round"/>
<path d="M250.617 220.937C253.123 224.529 254.466 228.805 254.465 233.185" stroke="#FF967C" stroke-width="3" stroke-linecap="round"/>
<path d="M264.121 224.505C264.121 224.505 266.603 230.198 266.808 234.701" stroke="#FF967C" stroke-width="3" stroke-linecap="round"/>
<path d="M275.178 228.594C276.156 230.996 276.535 233.6 276.283 236.182" stroke="#FF967C" stroke-width="3" stroke-linecap="round"/>
<path d="M194.208 253.29C194.208 253.29 197.145 249.56 196.138 247.689C195.13 245.818 190.648 243.172 188.058 243.46C186.822 243.646 185.629 244.052 184.537 244.659C184.338 244.763 184.171 244.917 184.05 245.106C183.929 245.295 183.86 245.512 183.849 245.736C183.838 245.96 183.886 246.183 183.987 246.382C184.089 246.582 184.241 246.752 184.429 246.875L194.208 253.29Z" stroke="#FF967C" stroke-width="3" stroke-linecap="round"/>
<path d="M143.697 298.775H54.2111C53.8418 298.782 53.4753 298.71 53.1362 298.563C52.797 298.416 52.4934 298.199 52.2459 297.925C51.9981 297.651 51.8122 297.327 51.7006 296.975C51.5887 296.623 51.554 296.251 51.5986 295.884L55.1125 259.329C55.2001 258.545 55.5698 257.82 56.1527 257.288C56.7356 256.757 57.4916 256.455 58.2806 256.439H147.767C148.136 256.432 148.502 256.504 148.841 256.651C149.18 256.797 149.484 257.015 149.732 257.289C149.979 257.563 150.165 257.887 150.277 258.239C150.389 258.591 150.423 258.963 150.379 259.329L146.865 295.884C146.777 296.668 146.408 297.394 145.825 297.925C145.242 298.457 144.486 298.759 143.697 298.775Z" fill="#5CA4E6"/>
<path d="M62.6121 265.972H117.838" stroke="#0A192F" stroke-width="11.6898" stroke-miterlimit="10" stroke-linecap="round"/>
<path d="M62.6121 265.972H100.989" stroke="white" stroke-width="11.6898" stroke-miterlimit="10" stroke-linecap="round"/>
<path d="M61.7858 277.607H117.011" stroke="#0A192F" stroke-width="11.6898" stroke-miterlimit="10" stroke-linecap="round"/>
<path d="M61.7858 277.607H84.7299" stroke="white" stroke-width="11.6898" stroke-miterlimit="10" stroke-linecap="round"/>
<path d="M59.9802 289.242H115.206" stroke="#0A192F" stroke-width="11.6898" stroke-miterlimit="10" stroke-linecap="round"/>
<path d="M59.9802 289.242H74.0114" stroke="white" stroke-width="11.6898" stroke-miterlimit="10" stroke-linecap="round"/>
<path d="M137.386 269.272C139.209 269.272 140.686 267.794 140.686 265.972C140.686 264.15 139.209 262.672 137.386 262.672C135.564 262.672 134.087 264.15 134.087 265.972C134.087 267.794 135.564 269.272 137.386 269.272Z" fill="white"/>
<path d="M136.317 280.397C138.139 280.397 139.616 278.92 139.616 277.098C139.616 275.275 138.139 273.798 136.317 273.798C134.494 273.798 133.017 275.275 133.017 277.098C133.017 278.92 134.494 280.397 136.317 280.397Z" fill="white"/>
<path d="M135.122 292.542C136.944 292.542 138.422 291.064 138.422 289.242C138.422 287.419 136.944 285.942 135.122 285.942C133.3 285.942 131.822 287.419 131.822 289.242C131.822 291.064 133.3 292.542 135.122 292.542Z" fill="white"/>
</g>
<defs>
<linearGradient id="paint0_linear_352_2413" x1="160.783" y1="-41.585" x2="278.039" y2="546.015" gradientUnits="userSpaceOnUse">
<stop stop-color="white"/>
<stop offset="1" stop-color="#94B9FF"/>
</linearGradient>
<linearGradient id="paint1_linear_352_2413" x1="174.631" y1="58.3397" x2="186" y2="235.322" gradientUnits="userSpaceOnUse">
<stop stop-color="white"/>
<stop offset="1" stop-color="#94B9FF"/>
</linearGradient>
<linearGradient id="paint2_linear_352_2413" x1="208.406" y1="149.002" x2="227.003" y2="302.992" gradientUnits="userSpaceOnUse">
<stop stop-color="white"/>
<stop offset="1" stop-color="#94B9FF"/>
</linearGradient>
<linearGradient id="paint3_linear_352_2413" x1="168.512" y1="227.3" x2="171.787" y2="317.999" gradientUnits="userSpaceOnUse">
<stop stop-color="white"/>
<stop offset="1" stop-color="#94B9FF"/>
</linearGradient>
<linearGradient id="paint4_linear_352_2413" x1="310.871" y1="45.2954" x2="313.666" y2="81.887" gradientUnits="userSpaceOnUse">
<stop stop-color="white"/>
<stop offset="1" stop-color="#94B9FF"/>
</linearGradient>
</defs>
</svg>
