<svg width="523" height="353" viewBox="0 0 523 353" fill="none" xmlns="http://www.w3.org/2000/svg">
<path d="M491.339 0H30.5406C13.6734 0 0 13.6734 0 30.5406V322.287C0 339.154 13.6734 352.828 30.5406 352.828H491.339C508.206 352.828 521.88 339.154 521.88 322.287V30.5406C521.88 13.6734 508.206 0 491.339 0Z" fill="url(#paint0_linear_352_2410)"/>
<path d="M34.9238 0H487.702C496.866 0 505.654 3.64041 512.133 10.1198C518.612 16.5991 522.253 25.3869 522.253 34.5507H0.373108C0.373108 25.3869 4.01351 16.5991 10.4929 10.1198C16.9722 3.64041 25.7607 0 34.9238 0Z" fill="#5CA4E6"/>
<path d="M275.102 56.4807H488.258C491.915 56.4807 495.422 57.9333 498.008 60.519C500.594 63.1047 502.047 66.6125 502.047 70.2691V175.635C502.047 179.292 500.594 182.799 498.008 185.386C495.422 187.972 491.915 189.424 488.258 189.424H275.102C271.445 189.424 267.938 187.972 265.352 185.386C262.766 182.799 261.313 179.292 261.313 175.635V70.2691C261.313 68.4588 261.67 66.6654 262.363 64.9926C263.056 63.3199 264.072 61.7995 265.352 60.519C266.633 59.2385 268.152 58.2233 269.825 57.5298C271.499 56.837 273.291 56.4807 275.102 56.4807Z" stroke="#5661AE" stroke-miterlimit="10" stroke-dasharray="11.93 11.93"/>
<path d="M431.043 208.912H217.887C210.271 208.912 204.098 215.086 204.098 222.701V328.067C204.098 335.683 210.271 341.856 217.887 341.856H431.043C438.658 341.856 444.831 335.683 444.831 328.067V222.701C444.831 215.086 438.658 208.912 431.043 208.912Z" fill="white"/>
<path d="M178.27 208.912H29.3246C22.8826 208.912 17.6597 214.135 17.6597 220.577V330.192C17.6597 336.634 22.8826 341.856 29.3246 341.856H178.27C184.713 341.856 189.935 336.634 189.935 330.192V220.577C189.935 214.135 184.713 208.912 178.27 208.912Z" fill="white"/>
<path d="M223.714 305.593C223.714 305.593 239.69 303.91 249.296 311.101C262.18 320.745 272.555 328.19 286.251 304.486C301.255 278.518 303.614 269.447 314.56 269.34C328.609 269.204 334.094 306.651 359.999 309.298C385.904 311.944 403.518 307.71 403.518 307.71" stroke="#5661AE" stroke-width="10" stroke-miterlimit="10" stroke-linecap="round"/>
<path d="M223.714 230.854H260.94" stroke="#5661AE" stroke-width="16" stroke-miterlimit="10" stroke-linecap="round"/>
<path d="M223.714 248.226H300.645" stroke="#D4DCF4" stroke-width="16" stroke-miterlimit="10" stroke-linecap="round"/>
<path d="M31.9468 25.0892C35.2076 25.0892 37.8504 22.4456 37.8504 19.1855C37.8504 15.9247 35.2076 13.2811 31.9468 13.2811C28.6859 13.2811 26.0431 15.9247 26.0431 19.1855C26.0431 22.4456 28.6859 25.0892 31.9468 25.0892Z" fill="white"/>
<path d="M51.9542 25.0892C55.215 25.0892 57.8585 22.4456 57.8585 19.1855C57.8585 15.9247 55.215 13.2811 51.9542 13.2811C48.694 13.2811 46.0505 15.9247 46.0505 19.1855C46.0505 22.4456 48.694 25.0892 51.9542 25.0892Z" fill="white"/>
<path d="M71.3917 25.0892C74.6525 25.0892 77.2961 22.4456 77.2961 19.1855C77.2961 15.9247 74.6525 13.2811 71.3917 13.2811C68.1316 13.2811 65.488 15.9247 65.488 19.1855C65.488 22.4456 68.1316 25.0892 71.3917 25.0892Z" fill="white"/>
<path d="M382.021 146.843C395.215 146.843 405.91 136.146 405.91 122.953C405.91 109.758 395.215 99.063 382.021 99.063C368.827 99.063 358.131 109.758 358.131 122.953C358.131 136.146 368.827 146.843 382.021 146.843Z" fill="#1C85E8"/>
<path d="M383.906 111.665C383.906 110.623 383.062 109.78 382.021 109.78C380.979 109.78 380.135 110.623 380.135 111.665V135.754C380.135 136.796 380.979 137.64 382.021 137.64C383.062 137.64 383.906 136.796 383.906 135.754V111.665Z" fill="white"/>
<path d="M394.065 125.595C395.107 125.595 395.951 124.751 395.951 123.71C395.951 122.668 395.107 121.824 394.065 121.824H369.976C368.935 121.824 368.09 122.668 368.09 123.71C368.09 124.751 368.935 125.595 369.976 125.595H394.065Z" fill="white"/>
<path d="M215.257 60.3251L6.48649 94.5013C2.90393 95.0875 0.475578 98.4669 1.06185 102.049L14.6943 185.326C15.2806 188.908 18.6607 191.337 22.2425 190.75L231.014 156.574C234.596 155.988 237.025 152.608 236.438 149.026L222.805 65.7491C222.219 62.1672 218.84 59.7382 215.257 60.3251Z" fill="#0A192F"/>
<path d="M108.574 112.54L193.42 98.6495" stroke="white" stroke-width="16.5208" stroke-miterlimit="10" stroke-linecap="round"/>
<path opacity="0.7" d="M114.601 138.301L169.949 129.24" stroke="white" stroke-width="16.5208" stroke-miterlimit="10" stroke-linecap="round"/>
<path d="M57.8566 169.362C74.4296 169.362 87.8645 155.927 87.8645 139.354C87.8645 122.781 74.4296 109.346 57.8566 109.346C41.2835 109.346 27.8486 122.781 27.8486 139.354C27.8486 155.927 41.2835 169.362 57.8566 169.362Z" stroke="#5CA4E6" stroke-width="16.5208" stroke-miterlimit="10"/>
<path d="M87.4701 134.506C88.4289 140.363 87.6295 146.374 85.1723 151.776C82.7157 157.178 78.7119 161.731 73.6676 164.859C68.6239 167.986 62.7654 169.547 56.8335 169.345C50.9023 169.142 45.1637 167.186 40.3444 163.722C35.5251 160.259 31.8409 155.444 29.7576 149.886C27.6742 144.329 27.2862 138.279 28.6422 132.5C29.9974 126.722 33.0361 121.476 37.3728 117.425C41.7103 113.373 47.1518 110.7 53.0082 109.741" stroke="white" stroke-width="16.5208" stroke-miterlimit="10" stroke-linecap="round"/>
<defs>
<linearGradient id="paint0_linear_352_2410" x1="247.947" y1="-0.838848" x2="303.128" y2="751.978" gradientUnits="userSpaceOnUse">
<stop stop-color="white"/>
<stop offset="1" stop-color="#94B9FF"/>
</linearGradient>
</defs>
</svg>
