<svg width="300" height="409" viewBox="0 0 300 409" fill="none" xmlns="http://www.w3.org/2000/svg">
<path d="M204.391 409H73.2698C62.6345 409 55.4747 400.377 57.278 389.74L110.087 78.2597C111.89 67.623 121.974 59 132.609 59H263.73C274.366 59 281.525 67.623 279.722 78.2597L226.913 389.74C225.11 400.377 215.026 409 204.391 409Z" fill="#5CA4E6"/>
<path d="M188.052 409H56.3429C45.6599 409 38.4674 400.377 40.2793 389.74L93.3248 78.2597C95.1362 67.623 105.265 59 115.948 59H247.657C258.34 59 265.532 67.623 263.721 78.2597L210.675 389.74C208.864 400.377 198.735 409 188.052 409Z" fill="#D1E8F7"/>
<path d="M188.68 399H59.4563C53.9284 399 50.2071 394.511 51.1445 388.974L103.613 79.0256C104.551 73.4885 109.792 69 115.32 69H244.544C250.072 69 253.793 73.4885 252.855 79.0256L200.387 388.974C199.449 394.511 194.208 399 188.68 399Z" fill="white"/>
<path d="M201.07 173H77L89.931 101.854C90.7782 97.5165 94.9962 94 99.3514 94H216.498C220.854 94 223.698 97.5165 222.851 101.854L210.491 165.146C209.643 169.483 205.426 173 201.07 173Z" fill="url(#paint0_linear_352_2346)"/>
<path d="M191.19 164H6.46629C2.13439 164 -0.694066 160.483 0.148489 156.145L12.4409 92.8545C13.2834 88.5166 17.4777 85 21.8096 85H206.533C210.865 85 213.694 88.5166 212.852 92.8545L200.559 156.145C199.717 160.483 195.522 164 191.19 164Z" fill="#0A192F"/>
<path d="M179.167 390.452L64.4733 391C60.1367 391 57.3052 387.463 58.1486 383.101L70.4543 319.447C71.2978 315.084 75.4966 311.548 79.8331 311.548L194.527 311C198.863 311 201.695 314.537 200.851 318.899L188.546 382.553C187.702 386.916 183.503 390.452 179.167 390.452Z" fill="#0A192F"/>
<path d="M77 371C80.2676 345.595 104.548 325 131.233 325C157.918 325 176.902 345.595 173.634 371" stroke="#5CA4E6" stroke-width="16.5208" stroke-miterlimit="10" stroke-linecap="round"/>
<path d="M77 371C80.2513 345.595 104.411 325 130.962 325C144.104 325 155.368 330.045 163 338.221" stroke="white" stroke-width="16.5208" stroke-miterlimit="10" stroke-linecap="round"/>
<path d="M165.419 303H83.6946C79.3325 303 76.3842 299.423 77.1098 295.01L94.3696 189.99C95.0946 185.577 99.2188 182 103.58 182H185.305C189.667 182 192.615 185.577 191.89 189.99L174.63 295.01C173.905 299.423 169.781 303 165.419 303Z" fill="url(#paint1_linear_352_2346)"/>
<path d="M109.099 237.001H97.7865C97.1644 237.022 96.5675 237.252 96.0949 237.653C95.6224 238.054 95.3016 238.603 95.1861 239.208L89.0424 275.791C88.9824 276.062 88.9863 276.343 89.0528 276.612C89.1194 276.882 89.2476 277.132 89.4269 277.345C89.6062 277.558 89.8323 277.727 90.0876 277.841C90.3434 277.954 90.6212 278.008 90.9012 277.999H102.213C102.836 277.978 103.432 277.748 103.905 277.347C104.378 276.946 104.698 276.397 104.814 275.791L110.958 239.208C111.018 238.938 111.014 238.657 110.947 238.388C110.881 238.119 110.752 237.867 110.573 237.655C110.394 237.442 110.168 237.272 109.912 237.159C109.657 237.046 109.379 236.992 109.099 237.001Z" fill="white"/>
<path d="M129.089 250.001H117.719C117.093 250.021 116.494 250.247 116.019 250.642C115.543 251.036 115.221 251.575 115.105 252.171L111.042 275.829C110.982 276.095 110.986 276.372 111.053 276.636C111.12 276.9 111.249 277.147 111.429 277.357C111.609 277.565 111.836 277.732 112.093 277.844C112.35 277.955 112.63 278.008 112.911 277.999H124.281C124.907 277.979 125.507 277.753 125.982 277.358C126.457 276.964 126.779 276.425 126.895 275.829L130.958 252.171C131.017 251.905 131.014 251.629 130.947 251.364C130.88 251.1 130.751 250.853 130.571 250.644C130.391 250.435 130.164 250.268 129.907 250.157C129.65 250.045 129.37 249.992 129.089 250.001Z" fill="white"/>
<path d="M156.085 215.001H144.69C144.064 215.021 143.463 215.249 142.986 215.646C142.51 216.043 142.187 216.585 142.071 217.184L132.042 275.816C131.983 276.084 131.986 276.361 132.053 276.627C132.121 276.894 132.249 277.142 132.43 277.352C132.61 277.563 132.838 277.73 133.095 277.842C133.353 277.954 133.633 278.008 133.915 277.999H145.309C145.937 277.979 146.537 277.751 147.013 277.354C147.49 276.957 147.812 276.414 147.929 275.816L157.958 217.184C158.018 216.916 158.014 216.639 157.947 216.372C157.88 216.106 157.751 215.858 157.57 215.648C157.39 215.437 157.162 215.27 156.904 215.158C156.647 215.046 156.367 214.992 156.085 215.001Z" fill="white"/>
<path d="M175.118 230.001H163.918C163.302 230.022 162.711 230.25 162.243 230.648C161.776 231.047 161.458 231.592 161.344 232.193L154.042 275.807C153.983 276.076 153.986 276.355 154.053 276.622C154.118 276.889 154.245 277.138 154.422 277.349C154.6 277.561 154.824 277.73 155.077 277.842C155.33 277.955 155.605 278.008 155.882 277.999H167.081C167.698 277.978 168.288 277.75 168.756 277.352C169.225 276.954 169.542 276.408 169.657 275.807L176.959 232.193C177.017 231.924 177.014 231.646 176.948 231.378C176.882 231.111 176.755 230.862 176.577 230.651C176.4 230.439 176.176 230.27 175.923 230.158C175.67 230.045 175.395 229.992 175.118 230.001Z" fill="white"/>
<path d="M102 195H133" stroke="white" stroke-width="10" stroke-miterlimit="10" stroke-linecap="round"/>
<path d="M101 205H116" stroke="white" stroke-width="10" stroke-miterlimit="10" stroke-linecap="round"/>
<path opacity="0.6" d="M92 286H98" stroke="white" stroke-width="6" stroke-miterlimit="10" stroke-linecap="round"/>
<path opacity="0.6" d="M115 286H120" stroke="white" stroke-width="6" stroke-miterlimit="10" stroke-linecap="round"/>
<path opacity="0.6" d="M136 286H142" stroke="white" stroke-width="6" stroke-miterlimit="10" stroke-linecap="round"/>
<path opacity="0.6" d="M158 286H163" stroke="white" stroke-width="6" stroke-miterlimit="10" stroke-linecap="round"/>
<path d="M273.188 303H190.753C186.353 303 183.379 299.423 184.111 295.01L201.521 189.99C202.252 185.577 206.412 182 210.812 182H293.247C297.647 182 300.621 185.577 299.889 189.99L282.479 295.01C281.748 299.423 277.588 303 273.188 303Z" fill="url(#paint2_linear_352_2346)"/>
<path d="M214.18 253.001H203.353C202.757 253.021 202.186 253.249 201.734 253.646C201.281 254.042 200.974 254.585 200.864 255.185L197.04 275.815C196.983 276.083 196.987 276.361 197.051 276.627C197.114 276.893 197.237 277.141 197.409 277.352C197.58 277.563 197.796 277.73 198.041 277.843C198.285 277.955 198.552 278.008 198.82 277.999H209.647C210.243 277.979 210.814 277.751 211.266 277.354C211.719 276.957 212.026 276.415 212.136 275.815L215.96 255.185C216.017 254.917 216.013 254.639 215.949 254.373C215.886 254.106 215.763 253.858 215.591 253.647C215.42 253.437 215.203 253.269 214.959 253.157C214.714 253.045 214.448 252.992 214.18 253.001Z" fill="white"/>
<path d="M241.112 221.001H229.879C229.262 221.022 228.669 221.249 228.2 221.646C227.73 222.043 227.412 222.587 227.297 223.187L219.042 275.813C218.983 276.081 218.986 276.359 219.053 276.626C219.119 276.892 219.245 277.14 219.423 277.351C219.602 277.562 219.826 277.73 220.08 277.843C220.334 277.955 220.61 278.008 220.888 277.999H232.121C232.738 277.978 233.331 277.751 233.8 277.354C234.27 276.956 234.588 276.413 234.703 275.813L242.958 223.187C243.017 222.919 243.014 222.64 242.947 222.374C242.881 222.108 242.755 221.859 242.577 221.649C242.398 221.438 242.174 221.27 241.92 221.157C241.666 221.045 241.39 220.992 241.112 221.001Z" fill="white"/>
<path d="M260.105 236.001H248.828C248.208 236.022 247.613 236.249 247.142 236.647C246.671 237.045 246.351 237.588 246.236 238.188L240.042 275.812C239.983 276.08 239.986 276.359 240.053 276.625C240.119 276.892 240.247 277.14 240.426 277.351C240.604 277.562 240.829 277.73 241.084 277.842C241.339 277.955 241.616 278.008 241.895 277.999H253.172C253.792 277.978 254.387 277.751 254.858 277.353C255.329 276.956 255.649 276.412 255.764 275.812L261.958 238.188C262.017 237.92 262.014 237.642 261.947 237.375C261.881 237.108 261.754 236.86 261.575 236.649C261.396 236.438 261.171 236.27 260.916 236.157C260.661 236.045 260.384 235.992 260.105 236.001Z" fill="white"/>
<path d="M283.118 230.001H271.919C271.302 230.022 270.712 230.25 270.244 230.648C269.775 231.047 269.458 231.592 269.343 232.193L262.041 275.807C261.983 276.076 261.986 276.355 262.052 276.622C262.118 276.889 262.245 277.138 262.423 277.349C262.6 277.561 262.824 277.73 263.077 277.842C263.33 277.955 263.605 278.008 263.882 277.999H275.082C275.698 277.978 276.289 277.75 276.757 277.352C277.224 276.954 277.542 276.408 277.656 275.807L284.958 232.193C285.017 231.924 285.014 231.646 284.947 231.378C284.882 231.111 284.755 230.862 284.578 230.651C284.4 230.439 284.176 230.27 283.923 230.158C283.67 230.045 283.395 229.992 283.118 230.001Z" fill="white"/>
<path d="M210 195H240" stroke="white" stroke-width="10" stroke-miterlimit="10" stroke-linecap="round"/>
<path d="M208 205H223" stroke="white" stroke-width="10" stroke-miterlimit="10" stroke-linecap="round"/>
<path opacity="0.6" d="M200 286H206" stroke="white" stroke-width="6" stroke-miterlimit="10" stroke-linecap="round"/>
<path opacity="0.6" d="M222 286H228" stroke="white" stroke-width="6" stroke-miterlimit="10" stroke-linecap="round"/>
<path opacity="0.6" d="M244 286H249" stroke="white" stroke-width="6" stroke-miterlimit="10" stroke-linecap="round"/>
<path d="M93 135.072C93 135.072 102.511 133.017 105.528 137.762C108.544 142.507 111.561 151.422 118.398 150.266C125.236 149.11 130.466 125.795 137.303 126.001C144.141 126.208 141.124 141.476 148.566 141.682C156.007 141.888 154.197 133.223 160.23 133.223C166.264 133.223 164.252 151.793 172.096 151.999C179.939 152.205 179.134 128.065 191 128.477" stroke="white" stroke-width="5" stroke-miterlimit="10" stroke-linecap="round"/>
<path d="M65.0945 131.838C69.9151 119.899 65.2739 106.712 54.7283 102.383C44.1826 98.0546 31.7261 104.224 26.9055 116.162C22.0849 128.101 26.7261 141.288 37.2717 145.617C47.8174 149.945 60.2745 143.776 65.0945 131.838Z" stroke="#5CA4E6" stroke-width="16.5208" stroke-miterlimit="10" stroke-linecap="round"/>
<path d="M56 143.39C50.4032 147.09 43.545 148.147 37.3437 145.616C26.7362 141.288 22.0678 128.101 26.9167 116.162C31.7655 104.224 44.2951 98.0546 54.9027 102.383" stroke="white" stroke-width="16.5208" stroke-miterlimit="10" stroke-linecap="round"/>
<path d="M100 101H142" stroke="white" stroke-width="10" stroke-miterlimit="10" stroke-linecap="round"/>
<path opacity="0.6" d="M98 113H115" stroke="white" stroke-width="10" stroke-miterlimit="10" stroke-linecap="round"/>
<path d="M123 369H136" stroke="white" stroke-width="5" stroke-miterlimit="10" stroke-linecap="round"/>
<path opacity="0.5" d="M126 375H132" stroke="white" stroke-width="5" stroke-miterlimit="10" stroke-linecap="round"/>
<path d="M114 358L123.841 351.082L130.773 355.736L140 349" stroke="white" stroke-width="6.50414" stroke-linecap="round" stroke-linejoin="round"/>
<path d="M133 347H143V356" stroke="white" stroke-width="6.50414" stroke-linecap="round" stroke-linejoin="round"/>
<path d="M249.51 44.9979H211.128C210.658 45.0151 210.192 44.9259 209.764 44.7355C209.337 44.5457 208.961 44.2602 208.667 43.9031C208.372 43.5455 208.167 43.1261 208.068 42.6771C207.969 42.2286 207.978 41.7635 208.096 41.3194L213.994 11.6802C214.222 10.6671 214.787 9.75679 215.6 9.09109C216.414 8.42539 217.43 8.04253 218.491 8.0022H256.872C257.341 7.98446 257.808 8.07425 258.236 8.26407C258.663 8.45442 259.039 8.73942 259.334 9.097C259.629 9.45405 259.833 9.87401 259.932 10.3225C260.031 10.7709 260.021 11.236 259.904 11.6802L254.005 41.3194C253.778 42.3324 253.213 43.2428 252.4 43.9085C251.586 44.5742 250.569 44.957 249.51 44.9979Z" fill="#1C85E8"/>
<path d="M223.093 16L248.755 16.0047C248.939 15.9969 249.122 16.0298 249.291 16.1004C249.459 16.1715 249.608 16.2777 249.725 16.4121C249.843 16.5466 249.926 16.7045 249.969 16.8745C250.01 17.0439 250.01 17.2207 249.969 17.3907L249.617 19.2087C249.559 19.4733 249.436 19.7212 249.259 19.933C249.082 20.1449 248.856 20.3154 248.598 20.4309L234.539 26.8363C234.322 26.9451 234.079 27.0015 233.833 27C233.587 26.9984 233.345 26.9393 233.129 26.8284L221.564 20.2291C221.353 20.1035 221.187 19.9194 221.092 19.7019C220.996 19.4843 220.975 19.2437 221.03 19.0141L221.345 17.3855C221.43 17.0026 221.649 16.658 221.966 16.4064C222.284 16.1553 222.68 16.012 223.093 16Z" fill="white"/>
<path d="M221.755 23.1194L232.921 29.7431C233.072 29.8237 233.243 29.8664 233.417 29.8664C233.591 29.8664 233.762 29.8243 233.914 29.7436L247.64 23.1241C248.378 22.7682 249.122 23.2201 248.983 23.9398L246.943 34.4907C246.787 35.1841 246.39 35.8083 245.815 36.2634C245.24 36.7184 244.521 36.9779 243.771 37L220.258 36.9958C219.924 37.0095 219.592 36.9499 219.286 36.8218C218.981 36.6937 218.711 36.5007 218.498 36.2576C218.285 36.0145 218.134 35.7277 218.058 35.4203C217.981 35.1129 217.981 34.7928 218.057 34.4854L220.097 23.9346C220.129 23.7664 220.202 23.6076 220.309 23.47C220.416 23.3324 220.554 23.2201 220.714 23.1415C220.875 23.063 221.052 23.0197 221.232 23.016C221.413 23.0124 221.592 23.0477 221.755 23.1194Z" fill="white"/>
<path d="M258 16C262.419 16 266 12.4181 266 8C266 3.58191 262.419 0 258 0C253.581 0 250 3.58191 250 8C250 12.4181 253.581 16 258 16Z" fill="#5CA4E6"/>
<defs>
<linearGradient id="paint0_linear_352_2346" x1="146.365" y1="93.8126" x2="156.273" y2="262.697" gradientUnits="userSpaceOnUse">
<stop stop-color="white"/>
<stop offset="1" stop-color="#94B9FF"/>
</linearGradient>
<linearGradient id="paint1_linear_352_2346" x1="121.186" y1="143.501" x2="163.547" y2="437.036" gradientUnits="userSpaceOnUse">
<stop stop-color="white"/>
<stop offset="1" stop-color="#94B9FF"/>
</linearGradient>
<linearGradient id="paint2_linear_352_2346" x1="228.571" y1="143.501" x2="270.581" y2="437.139" gradientUnits="userSpaceOnUse">
<stop stop-color="white"/>
<stop offset="1" stop-color="#94B9FF"/>
</linearGradient>
</defs>
</svg>
