<svg width="569" height="183" viewBox="0 0 569 183" fill="none" xmlns="http://www.w3.org/2000/svg">
<path d="M56.828 179C44.3026 179 34.7053 175.909 28.036 169.728C21.3666 163.547 18.032 153.543 18.032 139.716V80.1799H0.219971V52.1199H18.032V26.4999L50.972 23.0839V52.1199H77.812V80.1799H50.972V138.008C50.972 145.816 54.388 149.72 61.22 149.72H74.884V179H56.828Z" fill="#ECEDEE"/>
<path d="M88.8225 179V52.1199H120.786V76.2759C122.901 67.1665 127.212 60.2532 133.718 55.5359C140.225 50.6559 149.009 48.5412 160.07 49.1919V80.1799H155.434C146 80.1799 138.029 83.1892 131.522 89.2079C125.016 95.2265 121.762 103.523 121.762 114.096V179H88.8225Z" fill="#ECEDEE"/>
<path d="M187.378 41.6279C181.847 41.6279 177.13 39.7572 173.226 36.0159C169.484 32.1119 167.613 27.4759 167.613 22.1079C167.613 16.9026 169.484 12.4292 173.226 8.68788C177.13 4.78388 181.847 2.83187 187.378 2.83187C193.071 2.83187 197.788 4.78388 201.53 8.68788C205.271 12.4292 207.142 16.9026 207.142 22.1079C207.142 27.6385 205.271 32.2745 201.53 36.0159C197.788 39.7572 193.071 41.6279 187.378 41.6279ZM171.029 179V52.1199H203.969V179H171.029Z" fill="#ECEDEE"/>
<path d="M281.279 182.172C269.73 182.172 259.157 179.244 249.559 173.388C240.125 167.369 232.561 159.399 226.867 149.476C221.337 139.391 218.571 128.248 218.571 116.048C218.571 106.939 220.198 98.3986 223.451 90.4279C226.705 82.2946 231.178 75.2185 236.871 69.1999C242.565 63.0185 249.153 58.2199 256.635 54.8039C264.281 51.2252 272.495 49.4359 281.279 49.4359C292.341 49.4359 300.962 51.5506 307.143 55.7799C313.325 59.8466 318.123 65.2959 321.539 72.1279V52.1199H354.235V179H322.271V158.26C318.855 165.417 313.975 171.192 307.631 175.584C301.45 179.976 292.666 182.172 281.279 182.172ZM286.647 152.404C293.967 152.404 300.23 150.777 305.435 147.524C310.803 144.108 314.951 139.635 317.879 134.104C320.807 128.573 322.271 122.555 322.271 116.048C322.271 109.379 320.807 103.279 317.879 97.7479C314.951 92.2172 310.803 87.7439 305.435 84.3279C300.23 80.9119 293.967 79.2039 286.647 79.2039C279.653 79.2039 273.471 80.9119 268.103 84.3279C262.898 87.5812 258.831 91.9732 255.903 97.5039C252.975 103.035 251.511 109.135 251.511 115.804C251.511 122.148 252.975 128.167 255.903 133.86C258.831 139.391 262.898 143.864 268.103 147.28C273.471 150.696 279.653 152.404 286.647 152.404Z" fill="#ECEDEE"/>
<path d="M373.807 179V0.879883H406.747V179H373.807Z" fill="#ECEDEE"/>
<path d="M469.661 182.172C448.351 182.172 430.783 174.771 416.957 159.968L439.161 139.716C448.433 150.127 458.355 155.332 468.929 155.332C474.622 155.332 478.933 154.112 481.861 151.672C484.951 149.069 486.497 145.897 486.497 142.156C486.497 139.879 485.927 137.927 484.789 136.3C483.813 134.673 481.617 133.128 478.201 131.664C474.947 130.2 469.986 128.736 463.317 127.272C451.93 124.507 443.471 121.091 437.941 117.024C432.41 112.957 428.75 108.403 426.961 103.36C425.171 98.3172 424.277 93.1119 424.277 87.7439C424.277 76.6825 428.425 67.4919 436.721 60.1719C445.179 52.6892 456.81 48.9479 471.613 48.9479C481.861 48.9479 490.645 50.4932 497.965 53.5839C505.285 56.6745 512.198 62.4492 518.705 70.9079L494.793 89.2079C491.702 84.3279 488.205 80.8305 484.301 78.7159C480.559 76.6012 476.574 75.5439 472.345 75.5439C467.79 75.5439 463.967 76.4385 460.877 78.2279C457.949 80.0172 456.485 82.8639 456.485 86.7679C456.485 88.8826 457.461 90.9972 459.413 93.1119C461.365 95.0639 466.082 97.0159 473.565 98.9679C485.927 102.059 495.362 105.719 501.869 109.948C508.375 114.015 512.849 118.651 515.289 123.856C517.729 129.061 518.949 134.836 518.949 141.18C518.949 148.988 516.753 155.983 512.361 162.164C508.131 168.345 502.275 173.225 494.793 176.804C487.473 180.383 479.095 182.172 469.661 182.172Z" fill="#ECEDEE"/>
<path d="M546.496 182.172C540.152 182.172 534.865 180.057 530.636 175.828C526.569 171.599 524.536 166.556 524.536 160.7C524.536 155.007 526.569 150.045 530.636 145.816C534.865 141.587 540.152 139.472 546.496 139.472C552.84 139.472 558.045 141.587 562.112 145.816C566.179 150.045 568.212 155.007 568.212 160.7C568.212 166.556 566.179 171.599 562.112 175.828C558.045 180.057 552.84 182.172 546.496 182.172Z" fill="#ECEDEE"/>
</svg>
